<svg version="1.1" id="Layer_1" xmlns="http://www.w3.org/2000/svg" xmlns:xlink="http://www.w3.org/1999/xlink" x="0px" y="0px"
	 width="100%" viewBox="0 0 512 512" enable-background="new 0 0 512 512" xml:space="preserve">
<path fill="#2492FF" opacity="1.000000" stroke="none" 
	d="
M1.000003,388.000000 
	C1.000000,300.979095 1.000000,213.958206 1.310122,126.813248 
	C2.485379,123.296951 3.363548,119.907997 4.213634,116.512001 
	C12.983590,81.477074 31.210506,52.421059 60.065918,30.623594 
	C79.052956,16.280729 100.467003,6.816529 124.144089,2.921092 
	C124.848999,2.805118 125.385162,1.663448 126.000000,1.000000 
	C213.020889,1.000000 300.041779,1.000000 387.192841,1.315087 
	C388.147125,2.083289 388.921112,2.731993 389.803406,2.958318 
	C396.374176,4.643812 403.064209,5.929080 409.535278,7.927638 
	C439.790375,17.271757 464.367523,35.044147 483.356110,60.087498 
	C497.715271,79.025284 507.232025,100.431328 511.078735,124.120728 
	C511.194305,124.832375 512.336487,125.377327 513.000000,126.000000 
	C513.000000,213.020889 513.000000,300.041779 512.688965,387.187897 
	C511.433075,390.852509 510.433411,394.378357 509.552185,397.933563 
	C504.133362,419.794922 494.541901,439.464050 480.544495,457.275116 
	C470.669647,469.840424 459.058624,480.235748 445.915710,488.877625 
	C428.703674,500.195038 409.957306,508.100281 389.369720,511.107513 
	C388.832458,511.185974 388.453033,512.344910 388.000000,513.000000 
	C300.979095,513.000000 213.958206,513.000000 126.812073,512.688965 
	C126.031044,511.931885 125.432808,511.256989 124.710518,511.075317 
	C117.972076,509.380371 111.097389,508.138336 104.478485,506.072113 
	C74.288651,496.647888 49.584686,479.090302 30.646051,453.929962 
	C16.343987,434.929443 6.716680,413.596680 2.921111,389.879639 
	C2.807351,389.168823 1.663558,388.622833 1.000003,388.000000 
M319.825012,110.192848 
	C293.916077,114.506958 274.112335,129.054962 257.326111,148.156403 
	C251.311691,142.473312 245.999466,136.936813 240.163284,132.022568 
	C201.070877,99.105507 142.259827,100.881485 107.748421,137.537201 
	C79.228447,167.829193 73.317162,204.691254 83.787323,244.131927 
	C89.931412,267.276489 104.481209,285.745941 121.054871,302.458344 
	C154.084579,335.764557 190.231888,365.561096 226.881851,394.712799 
	C245.195587,409.279633 269.815125,408.548248 288.407166,393.897675 
	C298.875153,385.648956 309.361267,377.377472 319.299683,368.511505 
	C345.523346,345.117523 372.309174,322.259369 397.268860,297.568146 
	C424.726593,270.405762 439.240631,237.202728 433.904633,197.653961 
	C429.629333,165.966934 415.897095,139.602051 387.623932,122.558548 
	C366.925140,110.081017 344.354431,106.996681 319.825012,110.192848 
z"/>
<path fill="#000000" opacity="1.000000" stroke="none" 
	d="
M513.000000,125.531342 
	C512.336487,125.377327 511.194305,124.832375 511.078735,124.120728 
	C507.232025,100.431328 497.715271,79.025284 483.356110,60.087498 
	C464.367523,35.044147 439.790375,17.271757 409.535278,7.927638 
	C403.064209,5.929080 396.374176,4.643812 389.803406,2.958318 
	C388.921112,2.731993 388.147125,2.083289 387.661499,1.315087 
	C429.593628,1.000000 471.187256,1.000000 513.000000,1.000000 
	C513.000000,42.353970 513.000000,83.708328 513.000000,125.531342 
z"/>
<path fill="#000000" opacity="1.000000" stroke="none" 
	d="
M125.531342,1.000000 
	C125.385162,1.663448 124.848999,2.805118 124.144089,2.921092 
	C100.467003,6.816529 79.052956,16.280729 60.065918,30.623594 
	C31.210506,52.421059 12.983590,81.477074 4.213634,116.512001 
	C3.363548,119.907997 2.485379,123.296951 1.310122,126.344589 
	C1.000000,84.406364 1.000000,42.812733 1.000000,1.000000 
	C42.353970,1.000000 83.708328,1.000000 125.531342,1.000000 
z"/>
<path fill="#000000" opacity="1.000000" stroke="none" 
	d="
M1.000003,388.468658 
	C1.663558,388.622833 2.807351,389.168823 2.921111,389.879639 
	C6.716680,413.596680 16.343987,434.929443 30.646051,453.929962 
	C49.584686,479.090302 74.288651,496.647888 104.478485,506.072113 
	C111.097389,508.138336 117.972076,509.380371 124.710518,511.075317 
	C125.432808,511.256989 126.031044,511.931885 126.343414,512.688965 
	C84.406364,513.000000 42.812729,513.000000 1.000000,513.000000 
	C1.000000,471.646027 1.000000,430.291687 1.000003,388.468658 
z"/>
<path fill="#000000" opacity="1.000000" stroke="none" 
	d="
M388.468658,513.000000 
	C388.453033,512.344910 388.832458,511.185974 389.369720,511.107513 
	C409.957306,508.100281 428.703674,500.195038 445.915710,488.877625 
	C459.058624,480.235748 470.669647,469.840424 480.544495,457.275116 
	C494.541901,439.464050 504.133362,419.794922 509.552185,397.933563 
	C510.433411,394.378357 511.433075,390.852509 512.688965,387.656555 
	C513.000000,429.593628 513.000000,471.187256 513.000000,513.000000 
	C471.646027,513.000000 430.291687,513.000000 388.468658,513.000000 
z"/>
<path fill="#FEFFFF" opacity="1.000000" stroke="none" 
	d="
M320.259155,110.136375 
	C344.354431,106.996681 366.925140,110.081017 387.623932,122.558548 
	C415.897095,139.602051 429.629333,165.966934 433.904633,197.653961 
	C439.240631,237.202728 424.726593,270.405762 397.268860,297.568146 
	C372.309174,322.259369 345.523346,345.117523 319.299683,368.511505 
	C309.361267,377.377472 298.875153,385.648956 288.407166,393.897675 
	C269.815125,408.548248 245.195587,409.279633 226.881851,394.712799 
	C190.231888,365.561096 154.084579,335.764557 121.054871,302.458344 
	C104.481209,285.745941 89.931412,267.276489 83.787323,244.131927 
	C73.317162,204.691254 79.228447,167.829193 107.748421,137.537201 
	C142.259827,100.881485 201.070877,99.105507 240.163284,132.022568 
	C245.999466,136.936813 251.311691,142.473312 257.326111,148.156403 
	C274.112335,129.054962 293.916077,114.506958 320.259155,110.136375 
M258.902802,203.710938 
	C249.775024,203.381027 244.732986,207.836090 244.520828,216.944031 
	C244.295990,226.596054 244.473145,236.257141 244.435669,245.914124 
	C244.428909,247.658554 244.233521,249.402252 244.108429,251.416260 
	C232.822083,251.416260 222.176498,251.369034 211.531525,251.430542 
	C202.281433,251.483994 196.622162,256.230316 196.555252,263.831970 
	C196.487747,271.501617 202.085129,276.362183 211.285233,276.444611 
	C220.275681,276.525177 229.267456,276.447968 238.258499,276.478607 
	C240.180313,276.485138 242.101547,276.657837 244.450745,276.775360 
	C244.450745,279.142853 244.449982,280.947388 244.450851,282.751892 
	C244.455368,292.076019 244.347092,301.402008 244.501389,310.723663 
	C244.621918,318.005798 248.297775,322.843140 254.200333,324.068024 
	C262.255951,325.739716 269.071014,320.506500 269.366791,311.836395 
	C269.707184,301.857544 269.726807,291.851532 269.398682,281.873352 
	C269.248596,277.310333 270.839569,276.237915 275.098389,276.376892 
	C284.079987,276.669861 293.078522,276.526398 302.068512,276.423859 
	C304.537933,276.395691 307.127869,276.264709 309.442841,275.508545 
	C314.821564,273.751617 317.932281,268.271057 317.281952,262.465851 
	C316.618317,256.541687 312.372650,251.974625 306.052795,251.702209 
	C295.915283,251.265198 285.749786,251.474823 275.596130,251.415588 
	C273.687225,251.404465 271.778168,251.414001 269.496155,251.414001 
	C269.496155,239.521606 269.585236,228.546814 269.466003,217.574249 
	C269.381134,209.760757 266.753510,206.270386 258.902802,203.710938 
z"/>
<path fill="#2894FF" opacity="1.000000" stroke="none" 
	d="
M259.278320,203.775909 
	C266.753510,206.270386 269.381134,209.760757 269.466003,217.574249 
	C269.585236,228.546814 269.496155,239.521606 269.496155,251.414001 
	C271.778168,251.414001 273.687225,251.404465 275.596130,251.415588 
	C285.749786,251.474823 295.915283,251.265198 306.052795,251.702209 
	C312.372650,251.974625 316.618317,256.541687 317.281952,262.465851 
	C317.932281,268.271057 314.821564,273.751617 309.442841,275.508545 
	C307.127869,276.264709 304.537933,276.395691 302.068512,276.423859 
	C293.078522,276.526398 284.079987,276.669861 275.098389,276.376892 
	C270.839569,276.237915 269.248596,277.310333 269.398682,281.873352 
	C269.726807,291.851532 269.707184,301.857544 269.366791,311.836395 
	C269.071014,320.506500 262.255951,325.739716 254.200333,324.068024 
	C248.297775,322.843140 244.621918,318.005798 244.501389,310.723663 
	C244.347092,301.402008 244.455368,292.076019 244.450851,282.751892 
	C244.449982,280.947388 244.450745,279.142853 244.450745,276.775360 
	C242.101547,276.657837 240.180313,276.485138 238.258499,276.478607 
	C229.267456,276.447968 220.275681,276.525177 211.285233,276.444611 
	C202.085129,276.362183 196.487747,271.501617 196.555252,263.831970 
	C196.622162,256.230316 202.281433,251.483994 211.531525,251.430542 
	C222.176498,251.369034 232.822083,251.416260 244.108429,251.416260 
	C244.233521,249.402252 244.428909,247.658554 244.435669,245.914124 
	C244.473145,236.257141 244.295990,226.596054 244.520828,216.944031 
	C244.732986,207.836090 249.775024,203.381027 259.278320,203.775909 
z"/>
</svg>